<?xml version="1.0" encoding="UTF-8"?>
<svg width="39px" height="45px" viewBox="0 0 39 45" version="1.1" xmlns="http://www.w3.org/2000/svg" xmlns:xlink="http://www.w3.org/1999/xlink">
    <!-- Generator: Sketch 45.1 (43504) - http://www.bohemiancoding.com/sketch -->
    <title>Logo</title>
    <desc>Created with Sketch.</desc>
    <defs></defs>
    <g id="Start" stroke="none" stroke-width="1" fill="none" fill-rule="evenodd">
        <g id="Desktop---Start" transform="translate(-63.000000, -15.000000)">
            <g id="Navbar">
                <g id="Logo-/-Light" transform="translate(60.000000, 15.000000)">
                    <g id="Logo">
                        <path d="M23.9867841,0.858395224 L40.4987874,10.3916048 L40.4987874,10.3916048 C41.4188127,10.9227816 41.9855716,11.9044368 41.9855716,12.9667904 L41.9855716,32.0332096 L41.9855716,32.0332096 C41.9855716,33.0955632 41.4188127,34.0772184 40.4987874,34.6083952 L23.9867841,44.1416048 L23.9867841,44.1416048 C23.0667589,44.6727816 21.9332411,44.6727816 21.0132159,44.1416048 L4.50121256,34.6083952 L4.50121256,34.6083952 C3.58118733,34.0772184 3.01442841,33.0955632 3.01442841,32.0332096 L3.01442841,12.9667904 L3.01442841,12.9667904 C3.01442841,11.9044368 3.58118733,10.9227816 4.50121256,10.3916048 L21.0132159,0.858395224 L21.0132159,0.858395224 C21.9332411,0.327218411 23.0667589,0.327218411 23.9867841,0.858395224 Z" id="Polygon" fill="#FFFFFF"></path>
                        <g id="1498577186_Streamline-52" transform="translate(12.687225, 13.083700)" fill-rule="nonzero" fill="#0D1118" fill-opacity="0.8">
                            <path d="M9.91189427,20.6693988 C9.8456648,20.6693988 9.77943532,20.6550354 9.71816179,20.6258597 L0.25680817,16.1372934 C0.100020024,16.0627832 0,15.9052346 0,15.7319759 L0,1.81742048 C0,1.66346266 0.0792951542,1.52027739 0.209951942,1.43768778 C0.34015819,1.35554701 0.504605527,1.34612102 0.644273128,1.41210295 L9.91189427,5.80865361 L19.1795154,1.41165409 C19.319183,1.34612102 19.4827293,1.35509816 19.6133861,1.43768778 C19.7444934,1.52027739 19.8237885,1.66346266 19.8237885,1.81742048 L19.8237885,15.7319759 C19.8237885,15.9052346 19.7237685,16.0627832 19.5669804,16.1372934 L10.1056268,20.6258597 C10.0443532,20.6550354 9.97812375,20.6693988 9.91189427,20.6693988 Z M0.901081298,15.4482985 L9.91189427,19.723209 L18.9227072,15.4482985 L18.9227072,2.52840938 L10.1056268,6.71130428 C9.98353024,6.76920679 9.84070885,6.76920679 9.71861233,6.71130428 L0.901081298,2.52840938 L0.901081298,15.4482985 Z" id="Shape"></path>
                            <path d="M9.91189427,4.58013302 L2.05761914,0.854174161 C1.83279936,0.747346284 1.73773528,0.479378877 1.84451342,0.255848277 C1.95174209,0.0318688205 2.22026432,-0.0619422145 2.4450841,0.0430902362 L9.91189427,3.58591559 L17.3787044,0.0430902362 C17.6039748,-0.0619422145 17.8720465,0.0318688205 17.9792751,0.255848277 C18.0860533,0.479378877 17.9909892,0.747346284 17.7661694,0.854174161 L9.91189427,4.58013302 Z" id="Shape"></path>
                            <rect id="Rectangle-path" x="9.46135362" y="6.30598675" width="1" height="13.9145554"></rect>
                        </g>
                    </g>
                </g>
            </g>
        </g>
    </g>
</svg>